<svg width="65" height="65" viewBox="0 0 65 65" fill="none" xmlns="http://www.w3.org/2000/svg">
<rect x="-4.57764e-05" y="0.000198364" width="65" height="65" rx="12" fill="white"/>
<path d="M53 50.0002H11V56.0002H53V50.0002Z" fill="#313036"/>
<path d="M22.9997 23.0011C22.9997 21.344 21.656 20.0011 20 20.0011C18.344 20.0011 17.0003 21.344 17.0003 23.0011V34.9993C17.0003 36.6564 18.3431 37.9993 20 37.9993C21.6569 37.9993 22.9997 36.6564 22.9997 34.9993H29C29 39.9714 24.9689 44.0002 20 44.0002C15.0311 44.0002 11 39.9705 11 34.9993V23.0011C11 18.0308 15.0311 14.0002 20 14.0002C24.9689 14.0002 29 18.0308 29 23.0011H22.9997Z" fill="#313036"/>
<path d="M46.816 14.0002H53L45.5002 44.0002H39.4998L32 14.0002H38.1849L42.5004 31.2615L46.816 14.0002Z" fill="#313036"/>
</svg>
