<svg width="90" height="90" viewBox="0 0 90 90" fill="none" xmlns="http://www.w3.org/2000/svg">
<rect width="90" height="90" rx="12" fill="white"/>
<path d="M45.2603 25.92C49.6763 25.92 53.5963 26.832 57.0203 28.656C60.4763 30.448 63.1643 32.928 65.0843 36.096C67.0043 39.264 67.9643 42.848 67.9643 46.848C67.9643 49.664 67.5483 52.096 66.7163 54.144C65.9163 56.16 64.7803 57.696 63.3083 58.752C61.8363 59.808 60.1083 60.336 58.1243 60.336C56.4923 60.336 55.1163 59.984 53.9963 59.28C52.8763 58.576 52.0603 57.536 51.5483 56.16C49.8203 58.944 47.0843 60.336 43.3403 60.336C41.2923 60.336 39.4203 59.824 37.7243 58.8C36.0283 57.776 34.6843 56.352 33.6923 54.528C32.7323 52.672 32.2523 50.56 32.2523 48.192C32.2523 45.856 32.7323 43.776 33.6923 41.952C34.6843 40.096 36.0123 38.656 37.6763 37.632C39.3723 36.608 41.2603 36.096 43.3403 36.096C46.5083 36.096 48.9723 37.152 50.7323 39.264V36.432H57.2603V51.984C57.2603 54.032 58.0283 55.056 59.5643 55.056C60.6843 55.056 61.5483 54.384 62.1563 53.04C62.7963 51.696 63.1163 49.664 63.1163 46.944C63.1163 43.712 62.3643 40.864 60.8603 38.4C59.3883 35.904 57.2923 33.968 54.5723 32.592C51.8843 31.184 48.7803 30.48 45.2603 30.48C41.7403 30.48 38.6203 31.232 35.9003 32.736C33.2123 34.208 31.1163 36.256 29.6123 38.88C28.1403 41.504 27.4043 44.48 27.4043 47.808C27.4043 51.2 28.1403 54.224 29.6123 56.88C31.0843 59.504 33.1483 61.552 35.8043 63.024C38.4923 64.528 41.5803 65.28 45.0683 65.28C48.5243 65.28 51.6763 64.576 54.5243 63.168L56.0603 67.584C54.6203 68.32 52.9083 68.88 50.9243 69.264C48.9723 69.68 47.0203 69.888 45.0683 69.888C40.5243 69.888 36.5083 68.928 33.0203 67.008C29.5323 65.12 26.8283 62.496 24.9083 59.136C22.9883 55.776 22.0283 52 22.0283 47.808C22.0283 43.648 22.9883 39.904 24.9083 36.576C26.8603 33.248 29.5963 30.64 33.1163 28.752C36.6363 26.864 40.6843 25.92 45.2603 25.92ZM44.8282 54.816C46.5883 54.816 48.0283 54.24 49.1483 53.088C50.2683 51.904 50.8283 50.272 50.8283 48.192C50.8283 46.144 50.2683 44.544 49.1483 43.392C48.0283 42.24 46.5883 41.664 44.8282 41.664C43.0363 41.664 41.5963 42.256 40.5083 43.44C39.4203 44.592 38.8763 46.176 38.8763 48.192C38.8763 50.24 39.4203 51.856 40.5083 53.04C41.5963 54.224 43.0363 54.816 44.8282 54.816Z" fill="#404044"/>
</svg>
