<svg width="65" height="65" viewBox="0 0 65 65" fill="none" xmlns="http://www.w3.org/2000/svg">
<g clip-path="url(#clip0)">
<path fill-rule="evenodd" clip-rule="evenodd" d="M32.6075 0C14.5647 0 0 14.9064 0 33.3726C0 48.0566 9.34748 60.5157 22.3905 64.9654C24.1295 65.1879 24.5643 64.298 24.5643 63.408V57.6234C15.4342 59.6258 13.4778 53.1738 13.4778 53.1738C11.9561 49.3915 9.78225 48.2791 9.78225 48.2791C6.73888 46.2767 9.99963 46.2767 9.99963 46.2767C13.2604 46.4992 14.9994 49.614 14.9994 49.614C17.8254 54.7311 22.6079 53.1738 24.5643 52.2838C24.7817 50.059 25.6512 48.7241 26.7381 47.8341C19.5645 46.9442 11.9561 44.0519 11.9561 31.3703C11.9561 27.8105 13.2604 24.6958 15.2168 22.4709C14.7821 21.581 13.6951 18.2437 15.4342 13.5715C15.4342 13.5715 18.2602 12.6816 24.3469 16.9088C26.9555 16.2414 29.7815 15.7964 32.6075 15.7964C35.4335 15.7964 38.2595 16.2414 40.8681 16.9088C47.1722 12.6816 49.7808 13.5715 49.7808 13.5715C51.5198 18.2437 50.4329 21.581 49.9982 22.4709C52.172 24.6958 53.2589 27.8105 53.2589 31.3703C53.2589 44.2744 45.6505 46.9442 38.4768 47.8341C39.5638 48.9466 40.6507 50.9489 40.6507 54.0637V63.1856C40.6507 64.0755 41.3028 65.1879 42.8245 64.7429C55.8675 60.2932 64.9976 47.8341 64.9976 33.1502C65.215 14.9064 50.6503 0 32.6075 0Z" fill="white"/>
</g>
<defs>
<clipPath id="clip0">
<rect width="65" height="65" fill="white" transform="translate(-1.52588e-05 0.000213623)"/>
</clipPath>
</defs>
</svg>
